<svg width="425" height="436" viewBox="0 0 425 436" fill="none" xmlns="http://www.w3.org/2000/svg">
<path d="M421.211 393.984C421.211 397.763 419.031 399.652 414.671 399.652C406.533 399.652 389.965 390.641 364.967 372.62C325.437 343.844 292.737 304.749 266.867 255.336C244.777 287.6 233.731 338.467 233.731 407.936C233.731 408.808 233.876 410.116 234.167 411.86C234.167 413.313 234.167 414.331 234.167 414.912C234.167 417.528 230.97 419.417 224.575 420.58C205.682 420.289 194.782 419.999 191.875 419.708C185.19 418.545 181.847 415.493 181.847 410.552C181.847 409.68 182.138 407.5 182.719 404.012C183.301 400.815 183.591 397.908 183.591 395.292C183.591 387.153 181.702 372.039 177.923 349.948C172.401 316.812 164.116 282.077 153.071 245.744L149.583 247.488C138.829 283.821 116.302 319.137 82.0032 353.436C68.0512 367.388 54.2445 378.433 40.5832 386.572C28.3752 393.839 18.9285 397.472 12.2432 397.472C9.91782 397.472 7.01116 396.745 3.52316 395.292V389.624C34.9152 378.579 63.5458 357.941 89.4152 327.712C115.866 296.32 134.032 260.568 143.915 220.456C131.998 185.576 116.011 152.149 95.9552 120.176C76.1898 87.912 55.4072 64.6587 33.6072 50.416C15.5858 38.7893 6.57516 32.976 6.57516 32.976C6.57516 29.7786 8.90049 28.18 13.5512 28.18C17.9112 28.18 26.4858 31.5226 39.2752 38.208C55.5525 46.3467 73.5738 57.5373 93.3392 71.78C123.859 93.8707 151.472 125.408 176.179 166.392C192.456 144.883 203.211 113.636 208.443 72.652C209.896 67.7107 211.786 54.6307 214.111 33.412C214.693 26.7266 216.146 22.8026 218.471 21.64C221.087 20.4773 229.662 19.6053 244.195 19.024C244.486 19.024 245.067 18.8787 245.939 18.588C246.521 18.588 247.102 18.588 247.683 18.588C252.915 18.588 256.258 22.3667 257.711 29.924C259.455 42.4227 261.199 55.0667 262.943 67.856C270.21 107.677 279.657 143.865 291.283 176.42C293.027 175.257 296.806 168.281 302.619 155.492C309.886 139.215 318.025 124.681 327.035 111.892C345.638 85.732 364.967 64.0773 385.023 46.928C399.266 35.0107 407.841 29.052 410.747 29.052C412.782 29.052 415.398 31.0867 418.595 35.156L419.031 35.592C419.031 35.592 413.072 40.0973 401.155 49.108C385.459 61.0253 370.345 75.8493 355.811 93.58C338.371 114.799 324.71 135.581 314.827 155.928C306.398 173.368 302.183 187.175 302.183 197.348C302.183 210.719 306.398 229.176 314.827 252.72C324.71 280.624 337.79 307.22 354.067 332.508C368.601 355.18 383.861 370.731 399.847 379.16C414.09 386.717 421.211 391.659 421.211 393.984ZM259.019 239.204C259.019 241.529 248.41 209.847 227.191 144.156C225.447 138.633 223.413 131.076 221.087 121.484C219.924 116.543 218.762 114.072 217.599 114.072C217.308 114.072 211.786 125.408 201.031 148.08C197.834 154.475 193.764 161.596 188.823 169.444C185.044 175.257 183.155 178.745 183.155 179.908C183.155 180.489 187.806 192.261 197.107 215.224C208.734 243.709 218.616 273.503 226.755 304.604C248.265 262.167 259.019 240.367 259.019 239.204Z" fill="white" fill-opacity="0.2"/>
</svg>
